<svg xmlns="http://www.w3.org/2000/svg" viewBox="0 0 595.3 95.6"><path d="M98.5 5.7v-.8H71.3L53.5 56.4 35.6 4.9H7.1v.7h.4c4 0 7.3 3.3 7.3 7.3v61.9c0 7.9-6.5 14.6-14.4 14.6v.7h29.4v-.7c-7.9 0-14.3-6.7-14.3-14.6V12.4l26.9 77.9.1-.2 27.1-78c0 .4.1.6.1 1v69.2c0 4-3.3 7.3-7.4 7.3v.7h36.1v-.7c-4 0-7.3-3.3-7.3-7.3V13c.1-4.1 3.4-7.3 7.4-7.3zm42.3 0v-.8h-36.1v.7c4 0 7.3 3.3 7.3 7.3v69.2c0 4-3.3 7.3-7.3 7.3v.7h36.1v-.7c-4.1 0-7.4-3.3-7.4-7.3V13c0-4.1 3.3-7.3 7.4-7.3zm66.5-.8h-48.4v23h.7c3.3-12.8 11.3-22.3 25.1-22.3v76.6c0 4-3.2 7.3-7.3 7.3v.7h36.2v-.7c-4 0-7.3-3.3-7.3-7.3V5.7c13.8 0 21.8 9.5 25.1 22.3h.7V5h-24.8zm87.5 79C283.7 52.2 282 47 267.3 4.9l-25.6 70.7c-2.6 6.8-9.4 12.9-16.5 13.9v.7H255v-.7c-6.8 0-12.3-5.4-12.3-12.2 0-1.5.2-2.8.6-4l.9-2.2h23.4l3.5 10.2c1.3 4-2 8.2-6 8.2v.7h37.5v-.7c-3.6 0-6.7-2.3-7.8-5.6zm-50.4-13.5l11.7-32.3c5.5 16 7.3 21.1 11.2 32.3h-22.9zm120.5-1.7c-3 12.1-14 20.8-26.9 20.8h-.4V13c0-4 3.3-7.3 7.4-7.3v-.8h-36.1v.7c4 0 7.3 3.3 7.3 7.3v69.2c0 4-3.3 7.3-7.3 7.3v.7h56.9V68.5h-.9zm36.8-63c13.9 0 25.6 9.5 28.9 22.3h.7V5h-59.6v.7c4 0 7.3 3.3 7.3 7.3v69.2c0 4-3.3 7.3-7.3 7.3v.7h59.6V67.3h-.7c-3.3 12.8-15 22.2-28.9 22.2h-1.2V48c8.9 0 16.3 6.1 18.5 14.3h.7V33h-.7c-2.2 8.2-9.6 14.3-18.5 14.3V5.7h1.2zm113.6 0v-.8h-29.4v.7c7.9 0 14.4 6.7 14.4 14.6v63.4l-15.4-44.1L473 4.9h-28.9v.7h.4c4 0 7.3 3.3 7.3 7.3v61.9c0 7.9-6.5 14.6-14.4 14.6v.7h29.4v-.7c-7.9 0-14.3-6.7-14.3-14.6V11.5l27.3 78.8h28.8v-.7h-.2c-4 0-7.3-3.3-7.3-7.3v-62c-.1-7.9 6.3-14.6 14.2-14.6zm54.5-.8h-48.4v23h.7c3.3-12.8 11.3-22.3 25.1-22.3v76.6c0 4-3.2 7.3-7.3 7.3v.7h36.2v-.7c-4 0-7.3-3.3-7.3-7.3V5.7c13.8 0 21.8 9.5 25.1 22.3h.7V5h-24.8z"/></svg>