<svg version="1.2" baseProfile="tiny" xmlns="http://www.w3.org/2000/svg" viewBox="0 0 595.3 841.9"><g fill="#FFF"><path d="M234.35 533.283c-2.18 0-3.94-1.74-3.94-3.92 0-1.42.76-2.72 1.98-3.42l222.401-127.7c1.92-1.04 4.3-.32 5.34 1.58 1 1.84.38 4.14-1.42 5.24l-222.401 127.7c-.6.34-1.28.52-1.96.52zm-31.94 57.74c-2.18 0-3.94-1.76-3.94-3.92 0-1.4.74-2.7 1.96-3.42l256.041-148.32c1.92-1.02 4.3-.28 5.32 1.64.96 1.82.36 4.08-1.38 5.18L204.37 590.503c-.58.34-1.26.52-1.96.52z"/><path d="M458.431 442.703c-2.1 0-3.82-1.66-3.92-3.76l-1.62-34.98-252.622-145.761c-1.88-1.08-2.52-3.5-1.44-5.38s3.5-2.52 5.38-1.44l254.482 146.84c1.16.68 1.9 1.88 1.96 3.22l1.7 37.14c.1 2.16-1.56 4-3.72 4.1h-.2v.02z"/><path d="M391.41 404.302c-.66 0-1.34-.18-1.94-.52l-80.9-46.36c-1.88-1.08-2.54-3.48-1.46-5.36v-.02a3.902 3.902 0 0 1 5.34-1.46s.02 0 .02.02l80.92 46.36c1.88 1.08 2.54 3.48 1.46 5.36a3.997 3.997 0 0 1-3.44 1.98zm-113.22-64.86c-.68 0-1.36-.18-1.96-.52l-108.06-61.92a3.948 3.948 0 0 1-.04-6.82l32.12-18.78c1.88-1.1 4.28-.46 5.38 1.42s.46 4.28-1.42 5.38l-26.26 15.34 102.18 58.54a3.927 3.927 0 0 1 1.48 5.36c-.66 1.24-1.98 2-3.42 2zm-.5 92.94c-.68 0-1.36-.18-1.96-.54l-43.16-24.92c-1.88-1.08-2.52-3.5-1.44-5.38s3.5-2.52 5.38-1.44l43.18 24.92c1.88 1.08 2.52 3.5 1.44 5.38-.72 1.24-2.02 2-3.44 1.98zm-.26 36.84c-.68 0-1.36-.18-1.96-.52l-75.04-43c-1.9-1.04-2.62-3.42-1.58-5.34s3.42-2.62 5.34-1.58c.06.02.1.06.16.08l75.04 43a3.954 3.954 0 0 1 1.48 5.36c-.7 1.26-2 2.02-3.44 2z"/><path d="M202.33 426.223c-2.16 0-3.94-1.76-3.94-3.92l-.04-93.781c.1-2.18 1.92-3.86 4.1-3.76a3.92 3.92 0 0 1 3.76 3.76l.04 93.78c.02 2.16-1.74 3.92-3.92 3.92z"/><path d="M202.41 591.024c-.72 0-1.44-.2-2.08-.6l-32.94-20.5a3.934 3.934 0 0 1-1.86-3.36l.64-293.022c0-2.16 1.76-3.92 3.94-3.92 2.18 0 3.92 1.78 3.92 3.94l-.62 290.862 25.06 15.6-.06-121.201c0-2.18 1.76-3.94 3.92-3.94 2.18 0 3.94 1.76 3.94 3.92l.06 128.28a3.905 3.905 0 0 1-3.92 3.94zm157.16-168.441c-.68 0-1.36-.18-1.94-.52l-49.06-28.1c-1.88-1.08-2.54-3.48-1.46-5.36v-.02a3.902 3.902 0 0 1 5.34-1.46s.02 0 .02.02l49.06 28.1c1.9 1.08 2.54 3.48 1.46 5.38a4 4 0 0 1-3.42 1.96zm-113.06-64.78c-.68 0-1.36-.18-1.96-.52l-44.22-25.361c-1.88-1.08-2.54-3.48-1.46-5.36v-.02a3.902 3.902 0 0 1 5.34-1.46s.02 0 .02.02l44.22 25.36c1.88 1.08 2.54 3.48 1.46 5.36-.68 1.24-2 2-3.4 1.98z"/><path d="M246.03 487.763c-.68 0-1.36-.18-1.96-.52l-43.68-25.02c-1.88-1.08-2.54-3.48-1.46-5.36v-.02c1.06-1.88 3.46-2.54 5.34-1.48.02 0 .02.02.04.02l43.68 25.02c2.18-.02 3.94 1.74 3.96 3.92.02 2.18-1.74 3.94-3.92 3.96-.7.02-1.4-.16-2-.52z"/><path d="M234.35 572.504c-2.18 0-3.94-1.76-3.94-3.94l-.04-91.461c0-2.18 1.76-3.94 3.94-3.94 2.18 0 3.94 1.76 3.94 3.94l.04 91.44c0 2.2-1.76 3.96-3.94 3.96zm-.06-165.041c-2.18 0-3.94-1.76-3.94-3.94l-.02-56.7a3.932 3.932 0 0 1 4.04-3.82c2.08.06 3.76 1.74 3.82 3.82l.02 56.7c0 2.18-1.76 3.94-3.92 3.94zm76.26 81.96c-.72 0-1.44-.2-2.08-.6l-32.94-20.5a3.95 3.95 0 0 1-1.26-5.42 3.95 3.95 0 0 1 5.42-1.26l26.92 16.76-.04-124.38a3.932 3.932 0 0 1 4.04-3.82c2.08.06 3.76 1.74 3.82 3.82l.04 131.48c0 2.16-1.76 3.92-3.92 3.92z"/><path d="M277.61 468.923c-2.18 0-3.94-1.78-3.94-3.94l.08-36.54c0-2.16 1.76-3.92 3.94-3.92 2.18 0 3.92 1.76 3.92 3.94l-.08 36.56c0 2.14-1.76 3.9-3.92 3.9z"/><path d="M277.69 432.383c-2.18 0-3.94-1.78-3.94-3.94l.06-19.76c0-2.16 1.76-3.92 3.94-3.92h.02c2.18 0 3.92 1.78 3.92 3.94l-.06 19.76c-.02 2.16-1.78 3.92-3.94 3.92zm64.8 38.54c-2.18 0-3.94-1.76-3.94-3.94l-.04-58.12c0-2.18 1.76-3.94 3.92-3.94 2.18 0 3.94 1.76 3.94 3.92l.04 58.12c.02 2.18-1.74 3.94-3.92 3.96zm-108.16 23.56c-1.36 0-2.7-.72-3.42-1.98a3.924 3.924 0 0 1 1.44-5.36l43.88-25.18a3.94 3.94 0 0 1 5.38 1.46 3.94 3.94 0 0 1-1.46 5.38l-43.88 25.18c-.62.34-1.28.5-1.94.5zm-.04-91.42c-2.16 0-3.94-1.74-3.94-3.92 0-1.4.74-2.7 1.94-3.4l76.22-45.1c1.9-1.06 4.3-.36 5.36 1.54 1.02 1.82.42 4.12-1.34 5.24l-76.22 45.1c-.62.36-1.32.54-2.02.54z"/><path d="M277.75 412.603a3.914 3.914 0 0 1-3.94-3.9c0-1.4.74-2.7 1.94-3.4l32.2-19.08c1.86-1.1 4.28-.48 5.38 1.38s.48 4.28-1.38 5.38l-32.2 19.08c-.62.36-1.3.54-2 .54z"/><path d="M260.81 422.643a3.93 3.93 0 0 1-3.96-3.9c0-1.4.74-2.7 1.94-3.42l16.94-10.02c1.92-1.04 4.3-.32 5.34 1.6.98 1.8.4 4.06-1.32 5.18l-16.94 10.02c-.6.34-1.3.54-2 .54zm-26.54-57.72c-2.16 0-3.94-1.74-3.94-3.92 0-1.42.74-2.72 1.96-3.42l12.24-7.12c1.88-1.1 4.28-.46 5.38 1.42 1.1 1.88.46 4.28-1.42 5.38l-12.26 7.12c-.6.36-1.28.54-1.96.54z"/><path d="M246.51 357.802c-2.18 0-3.94-1.76-3.94-3.94 0-1.4.74-2.7 1.96-3.4l31.68-18.38c1.88-1.08 4.3-.42 5.36 1.48 1.06 1.86.44 4.24-1.42 5.34l-31.68 18.38c-.58.34-1.26.52-1.96.52zm95.96 74.58c-2.16 0-3.94-1.74-3.94-3.92 0-1.42.76-2.74 1.98-3.44l48.94-28.1c1.92-1.04 4.3-.32 5.34 1.58 1 1.84.38 4.14-1.42 5.24l-48.94 28.1c-.6.36-1.26.54-1.96.54z"/></g></svg>